# xmcd CD database file
#
# Track frame offsets:
#	150
#	14025
#	28927
#	40381
#	60300
#	75743
#	93041
#	111381
#	124916
#	145642
#
# Disc length: 2182 seconds
#
# Revision: 0
# Processed by: cddbd v1.5.1PL0 Copyright (c) Steve Scherf et al.
# Submitted via: CDex 1.51
#
DISCID=8208840a
DTITLE=Black Dirt - Sonic Redemption
DYEAR=2005
DGENRE=Rock
TTITLE0=Move
TTITLE1=Drip Down
TTITLE2=Chemical Party
TTITLE3=Run
TTITLE4=Girl Like U
TTITLE5=Lisa Says
TTITLE6=Down That Track
TTITLE7=Know You
TTITLE8=Twisted Road
TTITLE9=Dream Lover
EXTD=YEAR: 2005
EXTT0=
EXTT1=
EXTT2=
EXTT3=
EXTT4=
EXTT5=
EXTT6=
EXTT7=
EXTT8=
EXTT9=
PLAYORDER=
